<svg preserveAspectRatio="none" width="100%" height="100%" overflow="visible" style="display: block;" viewBox="0 0 32 32" fill="none" xmlns="http://www.w3.org/2000/svg">
<g id="live-streaming-02">
<path id="Vector" d="M16.0007 18.6667C17.4734 18.6667 18.6673 17.4728 18.6673 16C18.6673 14.5273 17.4734 13.3334 16.0007 13.3334C14.5279 13.3334 13.334 14.5273 13.334 16C13.334 17.4728 14.5279 18.6667 16.0007 18.6667Z" stroke="var(--stroke-0, #24933E)" stroke-width="2" stroke-linecap="round" stroke-linejoin="round"/>
<path id="Vector_2" d="M10 10.6667C8.66667 12 8 14 8 16C8 18 8.66667 20 10 21.3333" stroke="var(--stroke-0, #24933E)" stroke-width="2" stroke-linecap="round" stroke-linejoin="round"/>
<path id="Vector_3" d="M5.99935 8C3.99935 10 2.66602 12.6667 2.66602 16C2.66602 19.3333 3.99935 22 5.99935 24" stroke="var(--stroke-0, #24933E)" stroke-width="2" stroke-linecap="round" stroke-linejoin="round"/>
<path id="Vector_4" d="M22 21.3333C23.3333 20 24 18 24 16C24 14 23.3333 12 22 10.6667" stroke="var(--stroke-0, #24933E)" stroke-width="2" stroke-linecap="round" stroke-linejoin="round"/>
<path id="Vector_5" d="M26 24C28 22 29.3333 19.3333 29.3333 16C29.3333 12.6667 28 10 26 8" stroke="var(--stroke-0, #24933E)" stroke-width="2" stroke-linecap="round" stroke-linejoin="round"/>
</g>
</svg>
