<svg preserveAspectRatio="none" width="100%" height="100%" overflow="visible" style="display: block;" viewBox="0 0 32 32" fill="none" xmlns="http://www.w3.org/2000/svg">
<g id="user-group">
<path id="Vector" d="M20.6673 14.6667C20.6673 12.0893 18.578 10 16.0007 10C13.4233 10 11.334 12.0893 11.334 14.6667C11.334 17.244 13.4233 19.3333 16.0007 19.3333C18.578 19.3333 20.6673 17.244 20.6673 14.6667Z" stroke="var(--stroke-0, #24933E)" stroke-width="2" stroke-linecap="square"/>
<path id="Vector_2" d="M20.6446 15.1332C21.074 15.2633 21.5293 15.3333 22.001 15.3333C24.5784 15.3333 26.6677 13.244 26.6677 10.6667C26.6677 8.08933 24.5784 6 22.001 6C19.5812 6 17.5914 7.84187 17.3574 10.2002" stroke="var(--stroke-0, #24933E)" stroke-width="2" stroke-linecap="square"/>
<path id="Vector_3" d="M14.6443 10.2002C14.4103 7.84187 12.4205 6 10.0007 6C7.42332 6 5.33398 8.08933 5.33398 10.6667C5.33398 13.244 7.42332 15.3333 10.0007 15.3333C10.4724 15.3333 10.9278 15.2633 11.357 15.1332" stroke="var(--stroke-0, #24933E)" stroke-width="2" stroke-linecap="square"/>
<path id="Vector_4" d="M29.3333 22C29.3333 18.3181 26.0501 15.3333 22 15.3333" stroke="var(--stroke-0, #24933E)" stroke-width="2" stroke-linecap="square"/>
<path id="Vector_5" d="M23.3327 26C23.3327 22.3182 20.0495 19.3334 15.9993 19.3334C11.9493 19.3334 8.66602 22.3182 8.66602 26" stroke="var(--stroke-0, #24933E)" stroke-width="2" stroke-linecap="square"/>
<path id="Vector_6" d="M9.99935 15.3334C5.94926 15.3334 2.66602 18.3182 2.66602 22" stroke="var(--stroke-0, #24933E)" stroke-width="2" stroke-linecap="square"/>
</g>
</svg>
