<svg preserveAspectRatio="none" width="100%" height="100%" overflow="visible" style="display: block;" viewBox="0 0 20 20" fill="none" xmlns="http://www.w3.org/2000/svg">
<g id="analytics-up">
<path id="Vector" d="M5.83301 15V13.3333M9.99967 15V12.5M14.1663 15V10.8333M2.08301 10C2.08301 6.26805 2.08301 4.40208 3.24237 3.2427C4.40175 2.08334 6.26772 2.08334 9.99967 2.08334C13.7316 2.08334 15.5976 2.08334 16.757 3.2427C17.9163 4.40208 17.9163 6.26805 17.9163 10C17.9163 13.7319 17.9163 15.5979 16.757 16.7573C15.5976 17.9167 13.7316 17.9167 9.99967 17.9167C6.26772 17.9167 4.40175 17.9167 3.24237 16.7573C2.08301 15.5979 2.08301 13.7319 2.08301 10Z" stroke="var(--stroke-0, black)" stroke-width="1.25" stroke-linecap="round" stroke-linejoin="round"/>
<path id="Vector_2" d="M4.99316 9.57192C6.78908 9.63176 10.8614 9.36067 13.1778 5.68444M11.6599 5.2403L13.2228 4.98875C13.4133 4.96449 13.693 5.11488 13.7618 5.29415L14.175 6.65952" stroke="var(--stroke-0, black)" stroke-width="1.25" stroke-linecap="round" stroke-linejoin="round"/>
</g>
</svg>
