<svg preserveAspectRatio="none" width="100%" height="100%" overflow="visible" style="display: block;" viewBox="0 0 20 20" fill="none" xmlns="http://www.w3.org/2000/svg">
<g id="global">
<path id="Vector" d="M18.3337 9.99999C18.3337 5.39761 14.6027 1.66666 10.0003 1.66666C5.39795 1.66666 1.66699 5.39761 1.66699 9.99999C1.66699 14.6023 5.39795 18.3333 10.0003 18.3333C14.6027 18.3333 18.3337 14.6023 18.3337 9.99999Z" stroke="var(--stroke-0, black)" stroke-width="1.25"/>
<path id="Vector_2" d="M16.6663 4.74915C15.8874 4.80529 14.8898 5.10686 14.1979 6.0023C12.9484 7.61966 11.6988 7.75462 10.8658 7.2155C9.61626 6.40682 10.6663 5.09696 9.19976 4.38511C8.24395 3.92117 8.11068 2.6587 8.64267 1.66666" stroke="var(--stroke-0, black)" stroke-width="1.25" stroke-linejoin="round"/>
<path id="Vector_3" d="M1.66699 9.16666C2.30241 9.71841 3.19238 10.2235 4.24094 10.2235C6.40735 10.2235 6.84063 10.6374 6.84063 12.2932C6.84063 13.9489 6.84063 13.9489 7.27392 15.1907C7.55575 15.9984 7.65426 16.8062 7.09249 17.5" stroke="var(--stroke-0, black)" stroke-width="1.25" stroke-linejoin="round"/>
<path id="Vector_4" d="M18.3337 11.2102C17.5944 10.7842 16.667 10.609 15.7282 11.2837C13.9317 12.5748 12.6932 11.505 12.1352 12.5741C11.3141 14.1479 14.2467 14.6426 11.667 18.3333" stroke="var(--stroke-0, black)" stroke-width="1.25" stroke-linejoin="round"/>
</g>
</svg>
