<svg width="1332" height="712" viewBox="0 0 1332 712" fill="none" xmlns="http://www.w3.org/2000/svg" aria-hidden="true">
  <defs>
    <linearGradient id="hero-arc-gradient" x1="695.017" y1="712" x2="695.017" y2="554.5" gradientUnits="userSpaceOnUse">
      <stop stop-color="#24933E" />
      <stop offset="1" stop-color="#24933E" stop-opacity="0" />
    </linearGradient>
    <mask id="hero-arc-mask" fill="white">
      <path d="M8.74509e-05 316C9.19972e-05 368.004 17.2267 419.498 50.6964 467.543C84.166 515.588 133.223 559.242 195.067 596.014C256.911 632.786 330.33 661.956 411.133 681.856C491.936 701.757 578.54 712 666 712C753.46 712 840.064 701.757 920.867 681.856C1001.67 661.955 1075.09 632.786 1136.93 596.014C1198.78 559.242 1247.83 515.588 1281.3 467.543C1314.77 419.498 1332 368.003 1332 316L666 316L8.74509e-05 316Z" />
    </mask>
  </defs>
  <path
    d="M8.74509e-05 316C9.19972e-05 368.004 17.2267 419.498 50.6964 467.543C84.166 515.588 133.223 559.242 195.067 596.014C256.911 632.786 330.33 661.956 411.133 681.856C491.936 701.757 578.54 712 666 712C753.46 712 840.064 701.757 920.867 681.856C1001.67 661.955 1075.09 632.786 1136.93 596.014C1198.78 559.242 1247.83 515.588 1281.3 467.543C1314.77 419.498 1332 368.003 1332 316L666 316L8.74509e-05 316Z"
    stroke="url(#hero-arc-gradient)"
    stroke-width="2"
    stroke-linecap="round"
    stroke-dasharray="12 12"
    mask="url(#hero-arc-mask)"
  />
</svg>
