<svg preserveAspectRatio="none" width="100%" height="100%" overflow="visible" style="display: block;" viewBox="0 0 22 22" fill="none" xmlns="http://www.w3.org/2000/svg">
<g id="EeUrJQfpXibXJa3MotZvgAm9tsY.svg">
<path id="Vector" fill-rule="evenodd" clip-rule="evenodd" d="M16.477 15.562C16.478 15.744 16.42 15.796 16.243 15.792C15.7414 15.7782 15.2395 15.7792 14.738 15.795C14.486 15.805 14.411 15.74 14.414 15.478C14.429 14.35 14.42 13.221 14.422 12.092C14.422 11.782 14.402 11.476 14.288 11.184C14.095 10.692 13.763 10.359 13.212 10.31C12.627 10.259 12.202 10.526 11.914 11.02C11.725 11.344 11.682 11.705 11.683 12.075C11.685 13.215 11.677 14.355 11.69 15.495C11.693 15.741 11.618 15.802 11.383 15.794C10.8814 15.7792 10.3796 15.7789 9.878 15.793C9.686 15.797 9.628 15.74 9.628 15.544C9.633 13.196 9.633 10.847 9.628 8.499C9.628 8.331 9.663 8.255 9.853 8.259C10.388 8.271 10.924 8.271 11.46 8.259C11.645 8.256 11.694 8.323 11.687 8.496C11.675 8.777 11.684 9.059 11.684 9.414C12.478 8.432 13.434 8.11 14.57 8.339C15.67 8.561 16.427 9.551 16.459 10.877C16.496 12.437 16.469 14 16.477 15.562ZM7.233 7.385C7.07588 7.38569 6.9202 7.35501 6.77508 7.29477C6.62996 7.23453 6.49832 7.14594 6.38787 7.03419C6.27742 6.92244 6.19038 6.78977 6.13185 6.64395C6.07332 6.49813 6.04447 6.3421 6.047 6.185C6.04647 5.8676 6.1717 5.56292 6.39529 5.33765C6.61888 5.11237 6.92261 4.98485 7.24 4.983C7.55713 4.98669 7.85987 5.11588 8.08196 5.34229C8.30406 5.56869 8.4274 5.87386 8.425 6.191C8.42701 6.34819 8.39756 6.50419 8.3384 6.64983C8.27923 6.79547 8.19154 6.9278 8.08047 7.03905C7.96941 7.1503 7.83722 7.23822 7.69168 7.29763C7.54614 7.35704 7.39019 7.38675 7.233 7.385ZM7.97 15.795C7.47 15.775 6.967 15.782 6.466 15.792C6.286 15.795 6.206 15.762 6.206 15.553C6.213 13.206 6.212 10.86 6.206 8.513C6.206 8.324 6.251 8.253 6.452 8.259C6.964 8.272 7.478 8.275 7.989 8.258C8.225 8.249 8.269 8.337 8.267 8.55C8.258 9.712 8.263 10.873 8.263 12.036C8.263 13.186 8.256 14.337 8.268 15.488C8.271 15.722 8.217 15.804 7.97 15.795ZM19.175 5.535C19.128 5.161 19.122 4.777 18.915 4.443C18.248 3.36 17.327 2.743 16.006 2.75C12.666 2.767 9.324 2.75 5.983 2.762C5.481 2.763 4.964 2.78 4.509 3.049C3.396 3.708 2.743 4.629 2.75 5.978C2.766 9.33 2.75 12.682 2.761 16.035C2.763 16.508 2.77 17.002 3.017 17.427C3.602 18.434 4.372 19.181 5.637 19.177C5.673 19.177 5.701 19.194 5.732 19.209H16.268C16.326 19.157 16.398 19.183 16.464 19.175C16.842 19.128 17.234 19.125 17.57 18.908C18.51 18.301 19.2 17.535 19.18 16.326C19.18 16.305 19.194 16.286 19.21 16.268V5.732C19.163 5.672 19.183 5.602 19.175 5.535Z" fill="var(--fill-0, black)"/>
</g>
</svg>
