<svg preserveAspectRatio="none" width="100%" height="100%" overflow="visible" style="display: block;" viewBox="0 0 22 22" fill="none" xmlns="http://www.w3.org/2000/svg">
<g id="iBEROwOJyQaiqZZ4k8N5Sj51w.svg">
<path id="Vector" d="M10.854 8.295C10.3462 8.2948 9.84977 8.44521 9.42748 8.7272C9.00518 9.00919 8.67601 9.41009 8.48159 9.87919C8.28718 10.3483 8.23626 10.8645 8.33528 11.3626C8.43429 11.8606 8.6788 12.3181 9.03786 12.6771C9.39692 13.0362 9.85441 13.2807 10.3524 13.3797C10.8505 13.4787 11.3667 13.4278 11.8358 13.2334C12.3049 13.039 12.7058 12.7098 12.9878 12.2875C13.2698 11.8652 13.4202 11.3688 13.42 10.861C13.4211 10.5237 13.3554 10.1896 13.2268 9.87779C13.0982 9.56599 12.9093 9.28269 12.6708 9.04421C12.4323 8.80572 12.149 8.61675 11.8372 8.48817C11.5254 8.35959 11.1913 8.29394 10.854 8.295Z" fill="var(--fill-0, black)"/>
<path id="Vector_2" fill-rule="evenodd" clip-rule="evenodd" d="M14.383 1.832H7.333C5.87431 1.832 4.47536 2.41146 3.44391 3.44291C2.41246 4.47436 1.833 5.87331 1.833 7.332V14.382C1.833 15.8407 2.41246 17.2396 3.44391 18.2711C4.47536 19.3025 5.87431 19.882 7.333 19.882H14.383C15.8417 19.882 17.2406 19.3025 18.2721 18.2711C19.3035 17.2396 19.883 15.8407 19.883 14.382V7.332C19.883 5.87331 19.3035 4.47436 18.2721 3.44291C17.2406 2.41146 15.8417 1.832 14.383 1.832ZM10.853 14.794C9.80752 14.7915 8.80585 14.3737 8.06837 13.6327C7.33088 12.8916 6.91798 11.888 6.9205 10.8425C6.92302 9.79702 7.34075 8.79536 8.0818 8.05787C8.82285 7.32038 9.82652 6.90748 10.872 6.91C11.9175 6.91239 12.9192 7.32999 13.6568 8.07095C14.3944 8.81191 14.8074 9.81552 14.805 10.861C14.8026 11.9065 14.385 12.9082 13.6441 13.6458C12.9031 14.3834 11.8995 14.7964 10.854 14.794H10.853ZM14.277 6.334C14.3538 6.51689 14.4832 6.67282 14.6488 6.78197C14.8144 6.89112 15.0087 6.94857 15.207 6.947C15.4696 6.947 15.7214 6.8427 15.907 6.65704C16.0927 6.47138 16.197 6.21956 16.197 5.957C16.1992 5.80812 16.1681 5.66064 16.106 5.52531C16.0439 5.38998 15.9524 5.27022 15.8381 5.17479C15.7238 5.07935 15.5897 5.01063 15.4454 4.97366C15.3012 4.93668 15.1505 4.93238 15.0044 4.96107C14.8583 4.98976 14.7205 5.05071 14.6009 5.13948C14.4814 5.22824 14.3832 5.34258 14.3135 5.47415C14.2438 5.60572 14.2043 5.75119 14.198 5.89995C14.1917 6.04871 14.2187 6.197 14.277 6.334Z" fill="var(--fill-0, black)"/>
</g>
</svg>
