<svg preserveAspectRatio="none" width="100%" height="100%" overflow="visible" style="display: block;" viewBox="0 0 32 32" fill="none" xmlns="http://www.w3.org/2000/svg">
<g id="setting-error-03">
<path id="Vector" d="M13.3335 27.3333L12.3907 26.3905C12.1406 26.1405 11.8015 26 11.4479 26H7.33347C6.59709 26 6.00013 25.4031 6.00013 24.6667V20.4827C6.00013 20.1708 5.89077 19.8688 5.69109 19.6292L3.37812 16.8536C2.96607 16.3591 2.96607 15.6409 3.37812 15.1464L5.69109 12.3708C5.89077 12.1312 6.00013 11.8292 6.00013 11.5173V7.33333C6.00013 6.59696 6.59709 6 7.33347 6H11.5174C11.8293 6 12.1314 5.89064 12.371 5.69096L15.1465 3.37798C15.6411 2.96593 16.3592 2.96593 16.8537 3.37798L19.6293 5.69096C19.8689 5.89064 20.1709 6 20.4828 6H24.6668C25.4032 6 26.0001 6.59696 26.0001 7.33333V11.4477C26.0001 11.8013 26.1407 12.1405 26.3907 12.3905L27.3335 13.3333" stroke="var(--stroke-0, #24933E)" stroke-width="2" stroke-linecap="round" stroke-linejoin="round"/>
<path id="Vector_2" d="M22.6667 19.9973V22.664M22.6787 25.3307H22.6667M29.3333 22.664C29.3333 26.3459 26.3485 29.3307 22.6667 29.3307C18.9848 29.3307 16 26.3459 16 22.664C16 18.9821 18.9848 15.9973 22.6667 15.9973C26.3485 15.9973 29.3333 18.9821 29.3333 22.664Z" stroke="var(--stroke-0, #24933E)" stroke-width="2" stroke-linecap="round"/>
<path id="Vector_3" d="M19.1787 12.5833C18.3455 11.8077 17.2281 11.3333 16 11.3333C13.4227 11.3333 11.3333 13.4227 11.3333 16C11.3333 17.2281 11.8077 18.3455 12.5833 19.1787" stroke="var(--stroke-0, #24933E)" stroke-width="2" stroke-linecap="round"/>
</g>
</svg>
