<svg preserveAspectRatio="none" width="100%" height="100%" overflow="visible" style="display: block;" viewBox="0 0 21 21" fill="none" xmlns="http://www.w3.org/2000/svg">
<g id="location-06">
<path id="Vector" d="M13.5625 9.625C13.5625 11.3164 12.1914 12.6875 10.5 12.6875C8.80863 12.6875 7.4375 11.3164 7.4375 9.625C7.4375 7.93363 8.80863 6.5625 10.5 6.5625C12.1914 6.5625 13.5625 7.93363 13.5625 9.625Z" stroke="var(--stroke-0, white)" stroke-width="1.3125"/>
<path id="Vector_2" d="M10.5 1.75C14.7618 1.75 18.375 5.27886 18.375 9.56008C18.375 13.9094 14.7029 16.9616 11.3111 19.0371C11.0639 19.1767 10.7844 19.25 10.5 19.25C10.2156 19.25 9.93606 19.1767 9.68887 19.0371C6.30341 16.9414 2.625 13.9245 2.625 9.56008C2.625 5.27886 6.23826 1.75 10.5 1.75Z" stroke="var(--stroke-0, white)" stroke-width="1.3125"/>
</g>
</svg>
