<svg preserveAspectRatio="none" width="100%" height="100%" overflow="visible" style="display: block;" viewBox="0 0 33.6 33.6" fill="none" xmlns="http://www.w3.org/2000/svg">
<g id="home-13">
<path id="Vector" d="M30.8 14.7L18.0355 3.9509C17.6897 3.6597 17.2521 3.5 16.8 3.5C16.3479 3.5 15.9103 3.6597 15.5645 3.9509L2.8 14.7" stroke="var(--stroke-0, #24933E)" stroke-width="2.1" stroke-linecap="round" stroke-linejoin="round"/>
<path id="Vector_2" d="M28.7 7V21.7C28.7 25.6598 28.7 27.6396 27.4698 28.8698C26.2396 30.1 24.2598 30.1 20.3 30.1H13.3C9.3402 30.1 7.3603 30.1 6.13015 28.8698C4.9 27.6396 4.9 25.6598 4.9 21.7V13.3" stroke="var(--stroke-0, #24933E)" stroke-width="2.1" stroke-linecap="round" stroke-linejoin="round"/>
<path id="Vector_3" d="M21.0099 18.8498C21.4449 18.2262 21.7 17.4678 21.7 16.6498C21.7 14.5235 19.9763 12.7998 17.85 12.7998C15.7237 12.7998 14 14.5235 14 16.6498C14 17.2403 14.1329 17.7997 14.3705 18.2998" stroke="var(--stroke-0, #24933E)" stroke-width="0.825001" stroke-linecap="round" stroke-linejoin="round"/>
<path id="Vector_4" d="M17.85 14.9998C17.2425 14.9998 16.75 15.3692 16.75 15.8248C16.75 16.2805 17.2425 16.6498 17.85 16.6498C18.4575 16.6498 18.95 17.0192 18.95 17.4748C18.95 17.9305 18.4575 18.2998 17.85 18.2998M17.85 14.9998C18.3289 14.9998 18.7364 15.2294 18.8874 15.5498M17.85 14.9998V14.4498M17.85 18.2998C17.3711 18.2998 16.9636 18.0703 16.8126 17.7498M17.85 18.2998V18.8498" stroke="var(--stroke-0, #24933E)" stroke-width="0.825001" stroke-linecap="round"/>
<path id="Vector_5" d="M11.7998 19.3998H13.117C13.2787 19.3998 13.4383 19.4362 13.583 19.5063L14.7061 20.0497C14.8508 20.1197 15.0104 20.1561 15.1721 20.1561H15.7456C16.3002 20.1561 16.7498 20.5912 16.7498 21.1279C16.7498 21.1496 16.735 21.1686 16.7134 21.1746L15.3159 21.561C15.0652 21.6303 14.7968 21.6062 14.5636 21.4933L13.363 20.9124M16.7498 20.7748L19.2759 19.9987C19.7237 19.8591 20.2077 20.0246 20.4882 20.413C20.6911 20.6939 20.6084 21.0961 20.313 21.2666L16.1794 23.6516C15.9165 23.8032 15.6063 23.8403 15.3171 23.7545L11.7998 22.7107" stroke="var(--stroke-0, #24933E)" stroke-width="0.825001" stroke-linecap="round" stroke-linejoin="round"/>
</g>
</svg>
