<svg preserveAspectRatio="none" width="100%" height="100%" overflow="visible" style="display: block;" viewBox="0 0 32 32" fill="none" xmlns="http://www.w3.org/2000/svg">
<g id="money-bag-02">
<path id="Vector" d="M27.9236 22.4531C27.1725 17.9341 23.6184 13.2083 21.1288 10.5036C20.4235 9.73738 19.4173 9.33919 18.3759 9.33919H13.6241C12.5826 9.33919 11.5765 9.73738 10.8712 10.5036C8.38158 13.2083 4.82745 17.9341 4.07636 22.4531C3.42524 26.3704 7.03902 29.3392 11.0778 29.3392H20.9223C24.9609 29.3392 28.5748 26.3704 27.9236 22.4531Z" stroke="var(--stroke-0, #24933E)" stroke-width="2" stroke-linecap="round" stroke-linejoin="round"/>
<path id="Vector_2" d="M16 16C14.5272 16 13.3333 16.8955 13.3333 18C13.3333 19.1045 14.5272 20 16 20C17.4728 20 18.6667 20.8955 18.6667 22C18.6667 23.1045 17.4728 24 16 24M16 16C17.1611 16 18.1488 16.5565 18.5149 17.3333M16 16V14.6667M16 24C14.8389 24 13.8512 23.4435 13.4851 22.6667M16 24V25.3333" stroke="var(--stroke-0, #24933E)" stroke-width="2" stroke-linecap="round" stroke-linejoin="round"/>
<path id="Vector_3" d="M12.1148 9.33332L9.33333 4.66667L11.9796 5.10772C12.8291 5.24929 13.6947 4.97192 14.3036 4.36299L16 2.66667L17.6964 4.36299C18.3053 4.97192 19.1709 5.24929 20.0204 5.10772L22.6667 4.66667L19.8852 9.33332" stroke="var(--stroke-0, #24933E)" stroke-width="2" stroke-linecap="round" stroke-linejoin="round"/>
</g>
</svg>
