<svg preserveAspectRatio="none" width="100%" height="100%" overflow="visible" style="display: block;" viewBox="0 0 18.4 18.4" fill="none" xmlns="http://www.w3.org/2000/svg">
<g id="smart-phone-01">
<path id="Vector" d="M12.65 1.53333H5.75C4.90316 1.53333 4.21667 2.21983 4.21667 3.06667V15.3333C4.21667 16.1802 4.90316 16.8667 5.75 16.8667H12.65C13.4969 16.8667 14.1833 16.1802 14.1833 15.3333V3.06667C14.1833 2.21983 13.4969 1.53333 12.65 1.53333Z" stroke="var(--stroke-0, black)" stroke-width="1.15" stroke-linecap="round" stroke-linejoin="round"/>
<path id="Vector_2" d="M9.29583 14.5667H9.2M9.39167 14.5667C9.39167 14.6725 9.30588 14.7583 9.2 14.7583C9.09412 14.7583 9.00833 14.6725 9.00833 14.5667C9.00833 14.4608 9.09412 14.375 9.2 14.375C9.30588 14.375 9.39167 14.4608 9.39167 14.5667Z" stroke="var(--stroke-0, black)" stroke-width="1.15" stroke-linecap="round" stroke-linejoin="round"/>
</g>
</svg>
