<svg preserveAspectRatio="none" width="100%" height="100%" overflow="visible" style="display: block;" viewBox="0 0 18.4 18.4" fill="none" xmlns="http://www.w3.org/2000/svg">
<g id="calendar-02">
<path id="Vector" d="M12.2667 1.53333V4.6M6.13333 1.53333V4.6" stroke="var(--stroke-0, black)" stroke-width="1.15" stroke-linecap="round" stroke-linejoin="round"/>
<path id="Vector_2" d="M9.96667 3.06667H8.43333C5.54205 3.06667 4.09642 3.06667 3.1982 3.96487C2.3 4.86308 2.3 6.30872 2.3 9.2V10.7333C2.3 13.6246 2.3 15.0703 3.1982 15.9684C4.09642 16.8667 5.54205 16.8667 8.43333 16.8667H9.96667C12.8579 16.8667 14.3036 16.8667 15.2018 15.9684C16.1 15.0703 16.1 13.6246 16.1 10.7333V9.2C16.1 6.30872 16.1 4.86308 15.2018 3.96487C14.3036 3.06667 12.8579 3.06667 9.96667 3.06667Z" stroke="var(--stroke-0, black)" stroke-width="1.15" stroke-linecap="round" stroke-linejoin="round"/>
<path id="Vector_3" d="M2.3 7.66667H16.1" stroke="var(--stroke-0, black)" stroke-width="1.15" stroke-linecap="round" stroke-linejoin="round"/>
<path id="Vector_4" d="M8.43333 10.7333H12.2667M6.13333 10.7333H6.14022M9.96667 13.8H6.13333M12.2667 13.8H12.2598" stroke="var(--stroke-0, black)" stroke-width="1.15" stroke-linecap="round" stroke-linejoin="round"/>
</g>
</svg>
