<svg preserveAspectRatio="none" width="100%" height="100%" overflow="visible" style="display: block;" viewBox="0 0 26.2609 26.2609" fill="none" xmlns="http://www.w3.org/2000/svg">
<g id="stars">
<path id="Vector" fill-rule="evenodd" clip-rule="evenodd" d="M13.13 2.46189C13.5832 2.46189 13.9506 2.82932 13.9506 3.28255C13.9506 5.4776 15.0564 7.74135 16.7877 9.47264C18.519 11.2039 20.7827 12.3097 22.9778 12.3097C23.431 12.3097 23.7985 12.6772 23.7985 13.1304C23.7985 13.5836 23.431 13.951 22.9778 13.951C20.7827 13.951 18.519 15.0568 16.7877 16.7881C15.0564 18.5194 13.9506 20.7831 13.9506 22.9782C13.9506 23.4314 13.5832 23.7988 13.13 23.7988C12.6768 23.7988 12.3093 23.4314 12.3093 22.9782C12.3093 20.7831 11.2035 18.5194 9.47224 16.7881C7.74095 15.0568 5.47721 13.951 3.28215 13.951C2.82892 13.951 2.4615 13.5836 2.4615 13.1304C2.4615 12.6772 2.82892 12.3097 3.28215 12.3097C5.47721 12.3097 7.74095 11.2039 9.47224 9.47264C11.2035 7.74135 12.3093 5.4776 12.3093 3.28255C12.3093 2.82932 12.6768 2.46189 13.13 2.46189Z" fill="var(--fill-0, #141B34)"/>
<path id="Vector_2" fill-rule="evenodd" clip-rule="evenodd" d="M20.7894 1.36769C21.2426 1.36769 21.61 1.73511 21.61 2.18834C21.61 3.54804 22.7123 4.6503 24.072 4.6503C24.5252 4.6503 24.8927 5.01772 24.8927 5.47095C24.8927 5.92418 24.5252 6.2916 24.072 6.2916C22.7123 6.2916 21.61 7.39386 21.61 8.75356C21.61 9.20679 21.2426 9.57421 20.7894 9.57421C20.3362 9.57421 19.9687 9.20679 19.9687 8.75356C19.9687 7.39386 18.8664 6.2916 17.5068 6.2916C17.0536 6.2916 16.6861 5.92418 16.6861 5.47095C16.6861 5.01772 17.0536 4.6503 17.5068 4.6503C18.8664 4.6503 19.9687 3.54804 19.9687 2.18834C19.9687 1.73511 20.3362 1.36769 20.7894 1.36769Z" fill="var(--fill-0, #141B34)"/>
<path id="Vector_3" fill-rule="evenodd" clip-rule="evenodd" d="M4.92345 17.7807C5.37668 17.7807 5.74411 18.1482 5.74411 18.6014C5.74411 19.6589 6.60141 20.5162 7.65896 20.5162C8.11219 20.5162 8.47961 20.8837 8.47961 21.3369C8.47961 21.7901 8.11219 22.1575 7.65896 22.1575C6.60141 22.1575 5.74411 23.0149 5.74411 24.0724C5.74411 24.5256 5.37668 24.8931 4.92345 24.8931C4.47022 24.8931 4.1028 24.5256 4.1028 24.0724C4.1028 23.0149 3.24549 22.1575 2.18795 22.1575C1.73472 22.1575 1.36729 21.7901 1.36729 21.3369C1.36729 20.8837 1.73472 20.5162 2.18795 20.5162C3.24549 20.5162 4.1028 19.6589 4.1028 18.6014C4.1028 18.1482 4.47022 17.7807 4.92345 17.7807Z" fill="var(--fill-0, #141B34)"/>
</g>
</svg>
