<svg preserveAspectRatio="none" width="100%" height="100%" overflow="visible" style="display: block;" viewBox="0 0 32 32.2982" fill="none" xmlns="http://www.w3.org/2000/svg">
<g id="setting-error-03">
<path id="Vector" d="M7.86834 16.468H7.16693C4.8994 16.468 3.76562 16.468 3.28236 15.7204C2.79909 14.9729 3.25956 13.9314 4.18049 11.8484L6.94915 5.58622C7.78647 3.69235 8.20513 2.74541 9.01733 2.21481C9.82953 1.68421 10.8603 1.68421 12.9221 1.68421H16.1152C18.6198 1.68421 19.872 1.68421 20.3442 2.50237C20.8166 3.32052 20.1954 4.4135 18.9528 6.59946L17.3146 9.48122C16.6969 10.5679 16.388 11.1113 16.3923 11.5561C16.398 12.1341 16.7053 12.6666 17.2018 12.9582C17.5839 13.1827 18.2064 13.1827 19.4514 13.1827C21.0254 13.1827 21.8125 13.1827 22.2223 13.4552C22.7548 13.8091 23.0335 14.4425 22.9359 15.0767C22.8607 15.5648 22.3313 16.1501 21.2725 17.3209L12.8134 26.6748C11.1519 28.5121 10.3211 29.4307 9.76328 29.1401C9.2054 28.8492 9.4733 27.6375 10.0091 25.2137L11.0587 20.466C11.4666 18.6204 11.6706 17.6977 11.18 17.0828C10.6894 16.468 9.74906 16.468 7.86834 16.468Z" stroke="var(--stroke-0, #24933E)" stroke-width="2.29239" stroke-linejoin="round"/>
<path id="Vector_2" d="M24.0702 21.9649V24.6316M24.0822 27.2982H24.0702M30.7368 24.6316C30.7368 28.3134 27.752 31.2982 24.0702 31.2982C20.3883 31.2982 17.4035 28.3134 17.4035 24.6316C17.4035 20.9497 20.3883 17.9649 24.0702 17.9649C27.752 17.9649 30.7368 20.9497 30.7368 24.6316Z" stroke="var(--stroke-0, #24933E)" stroke-width="2" stroke-linecap="round"/>
</g>
</svg>
