<svg preserveAspectRatio="none" width="100%" height="100%" overflow="visible" style="display: block;" viewBox="0 0 32 32" fill="none" xmlns="http://www.w3.org/2000/svg">
<g id="bot">
<path id="Vector" d="M17.334 9.33337H14.6673C10.9221 9.33337 9.04946 9.33337 7.70428 10.2322C7.12193 10.6213 6.62193 11.1213 6.23281 11.7037C5.33398 13.0489 5.33398 14.9215 5.33398 18.6667C5.33398 22.4119 5.33398 24.2846 6.23281 25.6298C6.62193 26.212 7.12193 26.712 7.70428 27.1012C9.04946 28 10.9221 28 14.6673 28H17.334C21.0792 28 22.9519 28 24.2971 27.1012C24.8793 26.712 25.3793 26.212 25.7685 25.6298C26.6673 24.2846 26.6673 22.4119 26.6673 18.6667C26.6673 14.9215 26.6673 13.0489 25.7685 11.7037C25.3793 11.1213 24.8793 10.6213 24.2971 10.2322C22.9519 9.33337 21.0792 9.33337 17.334 9.33337Z" stroke="var(--stroke-0, #24933E)" stroke-width="2" stroke-linecap="round" stroke-linejoin="round"/>
<path id="Vector_2" d="M5.33268 18.6666H2.66602" stroke="var(--stroke-0, #24933E)" stroke-width="2" stroke-linecap="round" stroke-linejoin="round"/>
<path id="Vector_3" d="M13.334 22.6666H18.6673" stroke="var(--stroke-0, #24933E)" stroke-width="2" stroke-linecap="round" stroke-linejoin="round"/>
<path id="Vector_4" d="M29.3327 18.6666H26.666" stroke="var(--stroke-0, #24933E)" stroke-width="2" stroke-linecap="round" stroke-linejoin="round"/>
<path id="Vector_5" d="M20 14.6667V17.3333" stroke="var(--stroke-0, #24933E)" stroke-width="2" stroke-linecap="round" stroke-linejoin="round"/>
<path id="Vector_6" d="M12 14.6667V17.3333" stroke="var(--stroke-0, #24933E)" stroke-width="2" stroke-linecap="round" stroke-linejoin="round"/>
<path id="Vector_7" d="M15.9993 9.33333C15.9993 6.81917 15.9993 5.56209 15.2183 4.78105C14.4372 4 13.1802 4 10.666 4" stroke="var(--stroke-0, #24933E)" stroke-width="2" stroke-linecap="round" stroke-linejoin="round"/>
</g>
</svg>
