<svg preserveAspectRatio="none" width="100%" height="100%" overflow="visible" style="display: block;" viewBox="0 0 18.4 18.4" fill="none" xmlns="http://www.w3.org/2000/svg">
<g id="calendar-02">
<path id="Vector" d="M12.2661 1.5332V4.59987M6.13281 1.5332V4.59987" stroke="var(--stroke-0, black)" stroke-width="1.15" stroke-linecap="round" stroke-linejoin="round"/>
<path id="Vector_2" d="M9.96745 3.06689H8.43411C5.54283 3.06689 4.0972 3.06689 3.19898 3.9651C2.30078 4.86331 2.30078 6.30894 2.30078 9.20023V10.7336C2.30078 13.6248 2.30078 15.0705 3.19898 15.9687C4.0972 16.8669 5.54283 16.8669 8.43411 16.8669H9.96745C12.8587 16.8669 14.3044 16.8669 15.2026 15.9687C16.1008 15.0705 16.1008 13.6248 16.1008 10.7336V9.20023C16.1008 6.30894 16.1008 4.86331 15.2026 3.9651C14.3044 3.06689 12.8587 3.06689 9.96745 3.06689Z" stroke="var(--stroke-0, black)" stroke-width="1.15" stroke-linecap="round" stroke-linejoin="round"/>
<path id="Vector_3" d="M2.30078 7.6665H16.1008" stroke="var(--stroke-0, black)" stroke-width="1.15" stroke-linecap="round" stroke-linejoin="round"/>
<path id="Vector_4" d="M8.43281 10.7334H12.2661M6.13281 10.7334H6.1397M9.96615 13.8001H6.13281M12.2661 13.8001H12.2592" stroke="var(--stroke-0, black)" stroke-width="1.15" stroke-linecap="round" stroke-linejoin="round"/>
</g>
</svg>
