<svg preserveAspectRatio="none" width="100%" height="100%" overflow="visible" style="display: block;" viewBox="0 0 20 20" fill="none" xmlns="http://www.w3.org/2000/svg">
<g id="coins-01">
<path id="Vector" d="M12.9167 10.8333C15.9082 10.8333 18.3333 10.0871 18.3333 9.16667C18.3333 8.24619 15.9082 7.5 12.9167 7.5C9.92512 7.5 7.5 8.24619 7.5 9.16667C7.5 10.0871 9.92512 10.8333 12.9167 10.8333Z" stroke="var(--stroke-0, black)" stroke-width="1.25"/>
<path id="Vector_2" d="M18.3333 12.9167C18.3333 13.8372 15.9082 14.5833 12.9167 14.5833C9.92508 14.5833 7.5 13.8372 7.5 12.9167" stroke="var(--stroke-0, black)" stroke-width="1.25"/>
<path id="Vector_3" d="M18.3333 9.16667V16.5C18.3333 17.5125 15.9082 18.3333 12.9167 18.3333C9.92508 18.3333 7.5 17.5125 7.5 16.5V9.16667" stroke="var(--stroke-0, black)" stroke-width="1.25"/>
<path id="Vector_4" d="M7.08366 5.00001C10.0752 5.00001 12.5003 4.25381 12.5003 3.33334C12.5003 2.41286 10.0752 1.66667 7.08366 1.66667C4.09212 1.66667 1.66699 2.41286 1.66699 3.33334C1.66699 4.25381 4.09212 5.00001 7.08366 5.00001Z" stroke="var(--stroke-0, black)" stroke-width="1.25"/>
<path id="Vector_5" d="M5.00033 9.16667C3.42382 8.97483 1.97525 8.47875 1.66699 7.5M5.00033 13.3333C3.42382 13.1415 1.97525 12.6454 1.66699 11.6667" stroke="var(--stroke-0, black)" stroke-width="1.25" stroke-linecap="round"/>
<path id="Vector_6" d="M5.00033 17.5C3.42382 17.3082 1.97525 16.8121 1.66699 15.8333V3.33333" stroke="var(--stroke-0, black)" stroke-width="1.25" stroke-linecap="round"/>
<path id="Vector_7" d="M12.5 5V3.33333" stroke="var(--stroke-0, black)" stroke-width="1.25" stroke-linecap="round"/>
</g>
</svg>
