<svg preserveAspectRatio="none" width="100%" height="100%" overflow="visible" style="display: block;" viewBox="0 0 33.6 33.6" fill="none" xmlns="http://www.w3.org/2000/svg">
<g id="calendar-02">
<path id="Vector" d="M22.4 2.8V8.4M11.2 2.8V8.4" stroke="var(--stroke-0, #24933E)" stroke-width="2.1" stroke-linecap="round" stroke-linejoin="round"/>
<path id="Vector_2" d="M18.2 5.6H15.4C10.1203 5.6 7.48041 5.6 5.8402 7.2402C4.2 8.88041 4.2 11.5203 4.2 16.8V19.6C4.2 24.8797 4.2 27.5197 5.8402 29.1598C7.48041 30.8 10.1203 30.8 15.4 30.8H18.2C23.4797 30.8 26.1197 30.8 27.7598 29.1598C29.4 27.5197 29.4 24.8797 29.4 19.6V16.8C29.4 11.5203 29.4 8.88041 27.7598 7.2402C26.1197 5.6 23.4797 5.6 18.2 5.6Z" stroke="var(--stroke-0, #24933E)" stroke-width="2.1" stroke-linecap="round" stroke-linejoin="round"/>
<path id="Vector_3" d="M4.2 14H29.4" stroke="var(--stroke-0, #24933E)" stroke-width="2.1" stroke-linecap="round" stroke-linejoin="round"/>
<path id="Vector_4" d="M15.4 19.6H22.4M11.2 19.6H11.2126M18.2 25.2H11.2M22.4 25.2H22.3874" stroke="var(--stroke-0, #24933E)" stroke-width="2.1" stroke-linecap="round" stroke-linejoin="round"/>
</g>
</svg>
