<svg preserveAspectRatio="none" width="100%" height="100%" overflow="visible" style="display: block;" viewBox="0 0 42 42" fill="none" xmlns="http://www.w3.org/2000/svg">
<g id="call-02">
<path id="Vector" d="M16.0269 9.9964L15.3223 8.41094C14.8616 7.37429 14.6312 6.85594 14.2867 6.45927C13.8549 5.96215 13.2921 5.5964 12.6624 5.40374C12.16 5.25 11.5928 5.25 10.4584 5.25C8.79884 5.25 7.96908 5.25 7.27252 5.56901C6.45202 5.94479 5.71102 6.76074 5.41577 7.61355C5.16514 8.33751 5.23694 9.0815 5.38051 10.5695C6.90884 26.4078 15.5922 35.0911 31.4305 36.6196C32.9185 36.7631 33.6626 36.8348 34.3864 36.5842C35.2393 36.289 36.0552 35.548 36.4311 34.7275C36.7499 34.031 36.7499 33.2011 36.7499 31.5416C36.7499 30.4072 36.7499 29.8401 36.5963 29.3376C36.4036 28.708 36.0379 28.1452 35.5407 27.7133C35.1441 27.3689 34.6258 27.1384 33.5891 26.6776L32.0036 25.9731C30.8809 25.4742 30.3195 25.2246 29.7492 25.1704C29.2032 25.1184 28.6529 25.195 28.1419 25.394C27.6079 25.6019 27.1361 25.9951 26.1922 26.7818C25.2528 27.5645 24.7831 27.956 24.2091 28.1657C23.7002 28.3517 23.0275 28.4205 22.4916 28.3415C21.887 28.2525 21.4241 28.005 20.4982 27.5103C17.6177 25.9708 16.0292 24.3823 14.4898 21.5018C13.995 20.5759 13.7476 20.113 13.6585 19.5084C13.5795 18.9726 13.6484 18.2999 13.8343 17.791C14.044 17.217 14.4354 16.7473 15.2183 15.8077C16.0048 14.8639 16.3981 14.392 16.606 13.8581C16.805 13.3471 16.8816 12.7967 16.8297 12.2508C16.7754 11.6804 16.5259 11.1191 16.0269 9.9964Z" stroke="var(--stroke-0, #2D3139)" stroke-width="2.625" stroke-linecap="round"/>
</g>
</svg>
