<svg preserveAspectRatio="none" width="100%" height="100%" overflow="visible" style="display: block;" viewBox="0 0 33.6 33.6" fill="none" xmlns="http://www.w3.org/2000/svg">
<g id="file-02">
<path id="Vector" d="M11.2 23.8H22.4" stroke="var(--stroke-0, #24933E)" stroke-width="2.1" stroke-linecap="round" stroke-linejoin="round"/>
<path id="Vector_2" d="M11.2 18.2H16.8" stroke="var(--stroke-0, #24933E)" stroke-width="2.1" stroke-linecap="round" stroke-linejoin="round"/>
<path id="Vector_3" d="M18.2 3.5V4.2C18.2 8.1598 18.2 10.1397 19.4302 11.3698C20.6604 12.6 22.6402 12.6 26.6 12.6H27.3M28 14.9197V19.6C28 24.8797 28 27.5197 26.3598 29.1598C24.7197 30.8 22.0797 30.8 16.8 30.8C11.5203 30.8 8.88041 30.8 7.2402 29.1598C5.6 27.5197 5.6 24.8797 5.6 19.6V13.2382C5.6 8.69515 5.6 6.42363 6.8405 4.88506C7.09111 4.57423 7.37423 4.29111 7.68506 4.0405C9.22363 2.8 11.4951 2.8 16.0381 2.8C17.026 2.8 17.5197 2.8 17.9721 2.95961C18.0662 2.99281 18.1583 3.031 18.2483 3.07405C18.681 3.28097 19.0302 3.6302 19.7287 4.32863L26.3598 10.9598C27.1691 11.7691 27.5737 12.1737 27.7869 12.6883C28 13.2028 28 13.7751 28 14.9197Z" stroke="var(--stroke-0, #24933E)" stroke-width="2.1" stroke-linecap="round" stroke-linejoin="round"/>
</g>
</svg>
