<svg preserveAspectRatio="none" width="100%" height="100%" overflow="visible" style="display: block;" viewBox="0 0 33.6 33.6" fill="none" xmlns="http://www.w3.org/2000/svg">
<g id="file-01">
<path id="Vector" d="M11.1992 9.80005H22.3992" stroke="var(--stroke-0, #24933E)" stroke-width="2.1" stroke-linecap="round" stroke-linejoin="round"/>
<path id="Vector_2" d="M11.1992 15.3999H16.7992" stroke="var(--stroke-0, #24933E)" stroke-width="2.1" stroke-linecap="round" stroke-linejoin="round"/>
<path id="Vector_3" d="M18.2016 30.1V29.4C18.2016 25.4403 18.2016 23.4604 19.4317 22.2302C20.6619 21 22.6418 21 26.6016 21H27.3016M28.0016 18.6804V14C28.0016 8.72031 28.0016 6.08046 26.3613 4.44025C24.7212 2.80005 22.0812 2.80005 16.8016 2.80005C11.5218 2.80005 8.88197 2.80005 7.24176 4.44025C5.60156 6.08044 5.60156 8.72031 5.60156 14V20.3619C5.60156 24.9049 5.60156 27.1764 6.84206 28.715C7.09267 29.0258 7.3758 29.3089 7.68662 29.5595C9.2252 30.8 11.4967 30.8 16.0397 30.8C17.0275 30.8 17.5213 30.8 17.9736 30.6404C18.0677 30.6073 18.1598 30.569 18.2499 30.5261C18.6826 30.319 19.0318 29.9698 19.7302 29.2714L26.3613 22.6403C27.1707 21.8309 27.5753 21.4263 27.7885 20.9117C28.0016 20.3972 28.0016 19.8249 28.0016 18.6804Z" stroke="var(--stroke-0, #24933E)" stroke-width="2.1" stroke-linecap="round" stroke-linejoin="round"/>
</g>
</svg>
