<svg preserveAspectRatio="none" width="100%" height="100%" overflow="visible" style="display: block;" viewBox="0 0 46 46" fill="none" xmlns="http://www.w3.org/2000/svg">
<g id="Frame 2147235633">
<path d="M0 23C0 10.2975 10.2975 0 23 0V0C35.7025 0 46 10.2975 46 23V23C46 35.7025 35.7025 46 23 46V46C10.2975 46 0 35.7025 0 23V23Z" fill="var(--fill-0, #D5D5D5)"/>
<g id="Union">
<path d="M22.998 13C23.7342 13.0002 24.3309 13.5969 24.3311 14.333V21.667H31.667C32.4032 21.6672 33 22.2637 33 23C32.9999 23.7362 32.4032 24.3328 31.667 24.333H24.3311V31.667C24.3309 32.4031 23.7342 32.9998 22.998 33C22.2618 33 21.6642 32.4032 21.6641 31.667V24.333H14.333C13.5968 24.3328 13.0001 23.7362 13 23C13 22.2637 13.5968 21.6672 14.333 21.667H21.6641V14.333C21.6642 13.5968 22.2618 13 22.998 13Z" fill="var(--fill-0, black)"/>
<path d="M22.998 13C23.7342 13.0002 24.3309 13.5969 24.3311 14.333V21.667H31.667C32.4032 21.6672 33 22.2637 33 23C32.9999 23.7362 32.4032 24.3328 31.667 24.333H24.3311V31.667C24.3309 32.4031 23.7342 32.9998 22.998 33C22.2618 33 21.6642 32.4032 21.6641 31.667V24.333H14.333C13.5968 24.3328 13.0001 23.7362 13 23C13 22.2637 13.5968 21.6672 14.333 21.667H21.6641V14.333C21.6642 13.5968 22.2618 13 22.998 13Z" fill="var(--fill-1, #555554)"/>
</g>
</g>
</svg>
