<svg preserveAspectRatio="none" width="100%" height="100%" overflow="visible" style="display: block;" viewBox="0 0 20 20" fill="none" xmlns="http://www.w3.org/2000/svg">
<g id="home-03">
<path id="Vector" d="M2.5 9.99133V12.0833C2.5 14.8332 2.5 16.2081 3.35427 17.0624C4.20854 17.9167 5.58347 17.9167 8.33333 17.9167H11.6667C14.4165 17.9167 15.7914 17.9167 16.6457 17.0624C17.5 16.2081 17.5 14.8332 17.5 12.0833V9.99133C17.5 8.59025 17.5 7.88978 17.2034 7.28338C16.9068 6.67698 16.3539 6.2469 15.248 5.38676L13.5813 4.09046C11.8609 2.75237 11.0007 2.08333 10 2.08333C8.99925 2.08333 8.13908 2.75237 6.41868 4.09046L4.75201 5.38676C3.64611 6.2469 3.09316 6.67698 2.79658 7.28338C2.5 7.88978 2.5 8.59025 2.5 9.99133Z" stroke="var(--stroke-0, #25933E)" stroke-width="1.25" stroke-linecap="round" stroke-linejoin="round"/>
<path id="Vector_2" d="M12.5 17.9167V13.75C12.5 12.5715 12.5 11.9822 12.1339 11.6161C11.7678 11.25 11.1785 11.25 10 11.25C8.8215 11.25 8.23223 11.25 7.86612 11.6161C7.5 11.9822 7.5 12.5715 7.5 13.75V17.9167" stroke="var(--stroke-0, #25933E)" stroke-width="1.25" stroke-linecap="round" stroke-linejoin="round"/>
</g>
</svg>
