<svg preserveAspectRatio="none" width="100%" height="100%" overflow="visible" style="display: block;" viewBox="0 0 20 20" fill="none" xmlns="http://www.w3.org/2000/svg">
<g id="home-12">
<path id="Vector" d="M1.66699 8.33333L9.25666 2.34151C9.46841 2.17429 9.73041 2.08333 10.0003 2.08333C10.2702 2.08333 10.5322 2.17429 10.744 2.34151L13.7503 4.7149V3.33333C13.7503 2.87309 14.1234 2.49999 14.5837 2.49999H15.417C15.8772 2.49999 16.2503 2.87309 16.2503 3.33333V6.6886L18.3337 8.33333" stroke="var(--stroke-0, black)" stroke-width="1.25" stroke-linecap="round" stroke-linejoin="round"/>
<path id="Vector_2" d="M16.6663 9.58333V12.9167C16.6663 15.2737 16.6663 16.4522 15.9341 17.1844C15.2018 17.9167 14.0233 17.9167 11.6663 17.9167H8.33301C5.97598 17.9167 4.79747 17.9167 4.06524 17.1844C3.33301 16.4522 3.33301 15.2737 3.33301 12.9167V9.58333" stroke="var(--stroke-0, black)" stroke-width="1.25" stroke-linecap="round" stroke-linejoin="round"/>
<path id="Vector_3" d="M12.5008 12.9167C11.8346 13.4353 10.9593 13.75 10.0008 13.75C9.04231 13.75 8.16708 13.4353 7.50081 12.9167" stroke="var(--stroke-0, black)" stroke-width="1.25" stroke-linecap="round" stroke-linejoin="round"/>
</g>
</svg>
