<svg preserveAspectRatio="none" width="100%" height="100%" overflow="visible" style="display: block;" viewBox="0 0 33.6 33.6" fill="none" xmlns="http://www.w3.org/2000/svg">
<g id="home-13">
<path id="Vector" d="M30.8008 14.7L18.0363 3.9509C17.6905 3.6597 17.2528 3.5 16.8008 3.5C16.3487 3.5 15.9111 3.6597 15.5653 3.9509L2.80078 14.7" stroke="var(--stroke-0, #24933E)" stroke-width="2.1" stroke-linecap="round" stroke-linejoin="round"/>
<path id="Vector_2" d="M28.6984 7V21.7C28.6984 25.6598 28.6984 27.6396 27.4683 28.8698C26.2381 30.1 24.2582 30.1 20.2984 30.1H13.2984C9.33864 30.1 7.35874 30.1 6.12859 28.8698C4.89844 27.6396 4.89844 25.6598 4.89844 21.7V13.3" stroke="var(--stroke-0, #24933E)" stroke-width="2.1" stroke-linecap="round" stroke-linejoin="round"/>
<path id="Vector_3" d="M21.0099 18.8498C21.4449 18.2262 21.7 17.4678 21.7 16.6498C21.7 14.5235 19.9763 12.7998 17.85 12.7998C15.7237 12.7998 14 14.5235 14 16.6498C14 17.2403 14.1329 17.7997 14.3705 18.2998" stroke="var(--stroke-0, #24933E)" stroke-width="0.825001" stroke-linecap="round" stroke-linejoin="round"/>
<path id="Vector_4" d="M17.85 14.9998C17.2425 14.9998 16.75 15.3692 16.75 15.8248C16.75 16.2805 17.2425 16.6498 17.85 16.6498C18.4575 16.6498 18.95 17.0192 18.95 17.4748C18.95 17.9305 18.4575 18.2998 17.85 18.2998M17.85 14.9998C18.3289 14.9998 18.7364 15.2294 18.8874 15.5498M17.85 14.9998V14.4498M17.85 18.2998C17.3711 18.2998 16.9636 18.0703 16.8126 17.7498M17.85 18.2998V18.8498" stroke="var(--stroke-0, #24933E)" stroke-width="0.825001" stroke-linecap="round"/>
<path id="Vector_5" d="M11.8008 19.3999H13.1179C13.2797 19.3999 13.4393 19.4364 13.584 19.5064L14.7071 20.0498C14.8518 20.1198 15.0113 20.1562 15.1731 20.1562H15.7465C16.3012 20.1562 16.7508 20.5913 16.7508 21.128C16.7508 21.1497 16.7359 21.1688 16.7144 21.1747L15.3169 21.5611C15.0662 21.6304 14.7977 21.6063 14.5645 21.4934L13.3639 20.9126M16.7508 20.7749L19.2768 19.9988C19.7246 19.8593 20.2087 20.0247 20.4892 20.4132C20.692 20.694 20.6094 21.0962 20.314 21.2667L16.1804 23.6517C15.9175 23.8034 15.6073 23.8404 15.3181 23.7546L11.8008 22.7109" stroke="var(--stroke-0, #24933E)" stroke-width="0.825001" stroke-linecap="round" stroke-linejoin="round"/>
</g>
</svg>
