<svg preserveAspectRatio="none" width="100%" height="100%" overflow="visible" style="display: block;" viewBox="0 0 22 22" fill="none" xmlns="http://www.w3.org/2000/svg">
<g id="iBEROwOJyQaiqZZ4k8N5Sj51w.svg">
<path id="Vector" d="M10.8532 8.29493C10.3454 8.29474 9.84893 8.44515 9.42663 8.72713C9.00434 9.00912 8.67516 9.41003 8.48075 9.87912C8.28634 10.3482 8.23542 10.8644 8.33443 11.3625C8.43345 11.8605 8.67795 12.318 9.03701 12.6771C9.39608 13.0361 9.85356 13.2806 10.3516 13.3797C10.8496 13.4787 11.3659 13.4278 11.835 13.2333C12.3041 13.0389 12.705 12.7098 12.987 12.2875C13.2689 11.8652 13.4194 11.3687 13.4192 10.8609C13.4202 10.5237 13.3546 10.1895 13.226 9.87772C13.0974 9.56592 12.9084 9.28263 12.6699 9.04414C12.4315 8.80566 12.1482 8.61669 11.8364 8.48811C11.5246 8.35953 11.1904 8.29388 10.8532 8.29493Z" fill="var(--fill-0, black)"/>
<path id="Vector_2" fill-rule="evenodd" clip-rule="evenodd" d="M14.382 1.83203H7.33203C5.87334 1.83203 4.47439 2.41149 3.44294 3.44294C2.41149 4.47439 1.83203 5.87334 1.83203 7.33203V14.382C1.83203 15.8407 2.41149 17.2397 3.44294 18.2711C4.47439 19.3026 5.87334 19.882 7.33203 19.882H14.382C15.8407 19.882 17.2397 19.3026 18.2711 18.2711C19.3026 17.2397 19.882 15.8407 19.882 14.382V7.33203C19.882 5.87334 19.3026 4.47439 18.2711 3.44294C17.2397 2.41149 15.8407 1.83203 14.382 1.83203ZM10.852 14.794C9.80655 14.7915 8.80489 14.3738 8.0674 13.6327C7.32991 12.8917 6.91701 11.888 6.91953 10.8425C6.92205 9.79705 7.33978 8.79539 8.08083 8.0579C8.82188 7.32041 9.82555 6.90751 10.871 6.91003C11.9165 6.91242 12.9182 7.33002 13.6558 8.07098C14.3934 8.81194 14.8064 9.81555 14.804 10.861C14.8016 11.9065 14.384 12.9082 13.6431 13.6458C12.9021 14.3834 11.8985 14.7964 10.853 14.794H10.852ZM14.276 6.33403C14.3528 6.51692 14.4822 6.67285 14.6478 6.782C14.8134 6.89115 15.0077 6.9486 15.206 6.94703C15.4686 6.94703 15.7204 6.84273 15.9061 6.65707C16.0917 6.47141 16.196 6.2196 16.196 5.95703C16.1982 5.80815 16.1671 5.66067 16.105 5.52534C16.0429 5.39001 15.9514 5.27026 15.8371 5.17482C15.7228 5.07938 15.5887 5.01066 15.4445 4.97369C15.3002 4.93671 15.1496 4.93241 15.0035 4.9611C14.8574 4.98979 14.7195 5.05074 14.6 5.13951C14.4804 5.22828 14.3822 5.34261 14.3125 5.47418C14.2428 5.60575 14.2033 5.75122 14.197 5.89998C14.1907 6.04874 14.2177 6.19703 14.276 6.33403Z" fill="var(--fill-0, black)"/>
</g>
</svg>
