<svg preserveAspectRatio="none" width="100%" height="100%" overflow="visible" style="display: block;" viewBox="0 0 16 16" fill="none" xmlns="http://www.w3.org/2000/svg">
<g id="mail-01">
<path id="Vector" d="M1.33301 4L5.94169 6.61131C7.64074 7.574 8.35861 7.574 10.0577 6.61131L14.6663 4" stroke="var(--stroke-0, white)" stroke-linejoin="round"/>
<path id="Vector_2" d="M1.34352 8.9839C1.3871 11.0276 1.40889 12.0494 2.16298 12.8064C2.91706 13.5634 3.96656 13.5897 6.06556 13.6424C7.35921 13.675 8.64014 13.675 9.93381 13.6424C12.0328 13.5897 13.0823 13.5634 13.8364 12.8064C14.5905 12.0494 14.6123 11.0276 14.6558 8.9839C14.6699 8.32676 14.6699 7.67356 14.6558 7.01643C14.6123 4.97274 14.5905 3.95089 13.8364 3.19394C13.0823 2.43698 12.0328 2.41062 9.93381 2.35788C8.64014 2.32537 7.35921 2.32537 6.06555 2.35787C3.96656 2.4106 2.91706 2.43697 2.16297 3.19393C1.40889 3.95088 1.3871 4.97273 1.34351 7.01643C1.3295 7.67356 1.32951 8.32676 1.34352 8.9839Z" stroke="var(--stroke-0, white)" stroke-linejoin="round"/>
</g>
</svg>
