<svg preserveAspectRatio="none" width="100%" height="100%" overflow="visible" style="display: block;" viewBox="0 0 33.6 33.6" fill="none" xmlns="http://www.w3.org/2000/svg">
<g id="payment-02">
<path id="Vector" d="M2.8 6.3H12.2603C13.3742 6.3 14.4425 6.7425 15.2302 7.53015L19.6 11.9" stroke="var(--stroke-0, #24933E)" stroke-width="2.1" stroke-linecap="round" stroke-linejoin="round"/>
<path id="Vector_2" d="M7 18.9H2.8" stroke="var(--stroke-0, #24933E)" stroke-width="2.1" stroke-linecap="round" stroke-linejoin="round"/>
<path id="Vector_3" d="M11.9 10.5L14.7 13.3C15.4732 14.0732 15.4732 15.3268 14.7 16.1C13.9268 16.8732 12.6732 16.8732 11.9 16.1L9.8 14C8.59503 15.205 6.68739 15.3405 5.32412 14.3181L4.9 14" stroke="var(--stroke-0, #24933E)" stroke-width="2.1" stroke-linecap="round" stroke-linejoin="round"/>
<path id="Vector_4" d="M7 15.4V21.7C7 24.3398 7 25.6598 7.82011 26.4799C8.6402 27.3 9.96013 27.3 12.6 27.3H25.2C27.8398 27.3 29.1598 27.3 29.9799 26.4799C30.8 25.6598 30.8 24.3398 30.8 21.7V17.5C30.8 14.8602 30.8 13.5402 29.9799 12.7201C29.1598 11.9 27.8398 11.9 25.2 11.9H13.3" stroke="var(--stroke-0, #24933E)" stroke-width="2.1" stroke-linecap="round" stroke-linejoin="round"/>
<path id="Vector_5" d="M21.35 19.6C21.35 20.9531 20.2531 22.05 18.9 22.05C17.5469 22.05 16.45 20.9531 16.45 19.6C16.45 18.2469 17.5469 17.15 18.9 17.15C20.2531 17.15 21.35 18.2469 21.35 19.6Z" stroke="var(--stroke-0, #24933E)" stroke-width="2.1" stroke-linecap="round" stroke-linejoin="round"/>
</g>
</svg>
