<svg preserveAspectRatio="none" width="100%" height="100%" overflow="visible" style="display: block;" viewBox="0 0 20 20" fill="none" xmlns="http://www.w3.org/2000/svg">
<g id="progress">
<path id="Vector" d="M10.0003 18.3333C14.6027 18.3333 18.3337 14.6024 18.3337 10C18.3337 5.39762 14.6027 1.66666 10.0003 1.66666C5.39795 1.66666 1.66699 5.39762 1.66699 10C1.66699 14.6024 5.39795 18.3333 10.0003 18.3333Z" stroke="var(--stroke-0, black)" stroke-width="1.25" stroke-linecap="round" stroke-linejoin="round"/>
<path id="Vector_2" d="M9.99988 5C10.8776 5 11.7398 5.23103 12.4999 5.66988C13.26 6.10872 13.8911 6.7399 14.3301 7.5C14.7689 8.2601 14.9999 9.12233 14.9999 10C14.9999 10.8777 14.7689 11.7399 14.3301 12.5C13.8911 13.2601 13.26 13.8912 12.4999 14.3302C11.7398 14.769 10.8776 15 9.99988 15C9.12222 15 8.25998 14.769 7.49988 14.3302C6.73978 13.8912 6.1086 13.2601 5.66976 12.5L9.99988 10V5Z" stroke="var(--stroke-0, black)" stroke-width="1.25" stroke-linecap="round" stroke-linejoin="round"/>
</g>
</svg>
