<svg preserveAspectRatio="none" width="100%" height="100%" overflow="visible" style="display: block;" viewBox="0 0 18.4 18.4" fill="none" xmlns="http://www.w3.org/2000/svg">
<g id="smart-phone-01">
<path id="Vector" d="M12.6482 1.5332H5.74818C4.90134 1.5332 4.21484 2.2197 4.21484 3.06654V15.3332C4.21484 16.1801 4.90134 16.8665 5.74818 16.8665H12.6482C13.495 16.8665 14.1815 16.1801 14.1815 15.3332V3.06654C14.1815 2.2197 13.495 1.5332 12.6482 1.5332Z" stroke="var(--stroke-0, black)" stroke-width="1.15" stroke-linecap="round" stroke-linejoin="round"/>
<path id="Vector_2" d="M9.29531 14.5667H9.19948M9.39115 14.5667C9.39115 14.6725 9.30536 14.7583 9.19948 14.7583C9.0936 14.7583 9.00781 14.6725 9.00781 14.5667C9.00781 14.4608 9.0936 14.375 9.19948 14.375C9.30536 14.375 9.39115 14.4608 9.39115 14.5667Z" stroke="var(--stroke-0, black)" stroke-width="1.15" stroke-linecap="round" stroke-linejoin="round"/>
</g>
</svg>
