<svg preserveAspectRatio="none" width="100%" height="100%" overflow="visible" style="display: block;" viewBox="0 0 32 32" fill="none" xmlns="http://www.w3.org/2000/svg">
<g id="save-money-dollar">
<path id="Vector" d="M26.3271 17.3333C27.3816 15.8216 28 13.9829 28 12C28 6.84535 23.8213 2.66667 18.6667 2.66667C13.512 2.66667 9.33333 6.84533 9.33333 12C9.33333 13.4315 9.65559 14.7876 10.2315 16" stroke="var(--stroke-0, #24933E)" stroke-width="2" stroke-linecap="round" stroke-linejoin="round"/>
<path id="Vector_2" d="M18.6667 8C17.1939 8 16 8.89543 16 10C16 11.1046 17.1939 12 18.6667 12C20.1395 12 21.3333 12.8954 21.3333 14C21.3333 15.1045 20.1395 16 18.6667 16M18.6667 8C19.8277 8 20.8155 8.55653 21.1816 9.33333M18.6667 8V6.66667M18.6667 16C17.5056 16 16.5179 15.4435 16.1517 14.6667M18.6667 16V17.3333" stroke="var(--stroke-0, #24933E)" stroke-width="2" stroke-linecap="round"/>
<path id="Vector_3" d="M4 18.6667H7.19309C7.58529 18.6667 7.97211 18.7551 8.32289 18.9248L11.0455 20.2421C11.3963 20.4119 11.7831 20.5001 12.1753 20.5001H13.5655C14.91 20.5001 16 21.5549 16 22.856C16 22.9085 15.964 22.9548 15.9117 22.9692L12.5238 23.906C11.9161 24.074 11.2653 24.0155 10.7 23.7419L7.78948 22.3337M16 22L22.1237 20.1185C23.2093 19.7803 24.3828 20.1813 25.0628 21.1231C25.5545 21.8039 25.3543 22.7789 24.638 23.1923L14.6172 28.974C13.9799 29.3417 13.2279 29.4315 12.5269 29.2235L4 26.6932" stroke="var(--stroke-0, #24933E)" stroke-width="2" stroke-linecap="round" stroke-linejoin="round"/>
</g>
</svg>
